<svg width="344" height="201" viewBox="0 0 344 201" fill="none" xmlns="http://www.w3.org/2000/svg">
<rect width="344" height="201" fill="#121214"/>
<path d="M40.1367 129.281V143.5H38.2812V129.281H40.1367ZM44.707 129.281V130.824H33.7207V129.281H44.707ZM47.6074 134.594V143.5H45.8008V132.934H47.5586L47.6074 134.594ZM50.9082 132.875L50.8984 134.555C50.7487 134.522 50.6055 134.503 50.4688 134.496C50.3385 134.483 50.1888 134.477 50.0195 134.477C49.6029 134.477 49.235 134.542 48.916 134.672C48.597 134.802 48.3268 134.984 48.1055 135.219C47.8841 135.453 47.7083 135.733 47.5781 136.059C47.4544 136.378 47.373 136.729 47.334 137.113L46.8262 137.406C46.8262 136.768 46.888 136.169 47.0117 135.609C47.1419 135.049 47.3405 134.555 47.6074 134.125C47.8743 133.689 48.2129 133.35 48.623 133.109C49.0397 132.862 49.5345 132.738 50.1074 132.738C50.2376 132.738 50.3874 132.755 50.5566 132.787C50.7259 132.813 50.8431 132.842 50.9082 132.875ZM56.7676 143.695C56.0319 143.695 55.3646 143.572 54.7656 143.324C54.1732 143.07 53.6621 142.715 53.2324 142.26C52.8092 141.804 52.4837 141.264 52.2559 140.639C52.028 140.014 51.9141 139.33 51.9141 138.588V138.178C51.9141 137.318 52.041 136.553 52.2949 135.883C52.5488 135.206 52.8939 134.633 53.3301 134.164C53.7663 133.695 54.2611 133.34 54.8145 133.1C55.3678 132.859 55.9408 132.738 56.5332 132.738C57.2884 132.738 57.9395 132.868 58.4863 133.129C59.0397 133.389 59.4922 133.754 59.8438 134.223C60.1953 134.685 60.4557 135.232 60.625 135.863C60.7943 136.488 60.8789 137.172 60.8789 137.914V138.725H52.9883V137.25H59.0723V137.113C59.0462 136.645 58.9486 136.189 58.7793 135.746C58.6165 135.303 58.3561 134.939 57.998 134.652C57.64 134.366 57.1517 134.223 56.5332 134.223C56.123 134.223 55.7454 134.311 55.4004 134.486C55.0553 134.656 54.7591 134.91 54.5117 135.248C54.2643 135.587 54.0723 136 53.9355 136.488C53.7988 136.977 53.7305 137.54 53.7305 138.178V138.588C53.7305 139.089 53.7988 139.561 53.9355 140.004C54.0788 140.44 54.2839 140.824 54.5508 141.156C54.8242 141.488 55.153 141.749 55.5371 141.938C55.9277 142.126 56.3704 142.221 56.8652 142.221C57.5033 142.221 58.0436 142.09 58.4863 141.83C58.929 141.57 59.3164 141.221 59.6484 140.785L60.7422 141.654C60.5143 141.999 60.2246 142.328 59.873 142.641C59.5215 142.953 59.0885 143.207 58.5742 143.402C58.0664 143.598 57.4642 143.695 56.7676 143.695ZM64.9512 132.934V143.5H63.1348V132.934H64.9512ZM62.998 130.131C62.998 129.838 63.0859 129.59 63.2617 129.389C63.444 129.187 63.7109 129.086 64.0625 129.086C64.4076 129.086 64.6712 129.187 64.8535 129.389C65.0423 129.59 65.1367 129.838 65.1367 130.131C65.1367 130.411 65.0423 130.652 64.8535 130.854C64.6712 131.049 64.4076 131.146 64.0625 131.146C63.7109 131.146 63.444 131.049 63.2617 130.854C63.0859 130.652 62.998 130.411 62.998 130.131ZM69.6582 135.189V143.5H67.8516V132.934H69.5605L69.6582 135.189ZM69.2285 137.816L68.4766 137.787C68.4831 137.064 68.5905 136.397 68.7988 135.785C69.0072 135.167 69.3001 134.63 69.6777 134.174C70.0553 133.718 70.5046 133.367 71.0254 133.119C71.5527 132.865 72.1354 132.738 72.7734 132.738C73.2943 132.738 73.763 132.81 74.1797 132.953C74.5964 133.09 74.9512 133.311 75.2441 133.617C75.5436 133.923 75.7715 134.32 75.9277 134.809C76.084 135.29 76.1621 135.88 76.1621 136.576V143.5H74.3457V136.557C74.3457 136.003 74.2643 135.561 74.1016 135.229C73.9388 134.89 73.7012 134.646 73.3887 134.496C73.0762 134.34 72.6921 134.262 72.2363 134.262C71.7871 134.262 71.377 134.356 71.0059 134.545C70.6413 134.734 70.3255 134.994 70.0586 135.326C69.7982 135.658 69.5931 136.039 69.4434 136.469C69.3001 136.892 69.2285 137.341 69.2285 137.816ZM83.291 143.695C82.5553 143.695 81.888 143.572 81.2891 143.324C80.6966 143.07 80.1855 142.715 79.7559 142.26C79.3327 141.804 79.0072 141.264 78.7793 140.639C78.5514 140.014 78.4375 139.33 78.4375 138.588V138.178C78.4375 137.318 78.5645 136.553 78.8184 135.883C79.0723 135.206 79.4173 134.633 79.8535 134.164C80.2897 133.695 80.7845 133.34 81.3379 133.1C81.8913 132.859 82.4642 132.738 83.0566 132.738C83.8118 132.738 84.4629 132.868 85.0098 133.129C85.5632 133.389 86.0156 133.754 86.3672 134.223C86.7188 134.685 86.9792 135.232 87.1484 135.863C87.3177 136.488 87.4023 137.172 87.4023 137.914V138.725H79.5117V137.25H85.5957V137.113C85.5697 136.645 85.472 136.189 85.3027 135.746C85.14 135.303 84.8796 134.939 84.5215 134.652C84.1634 134.366 83.6751 134.223 83.0566 134.223C82.6465 134.223 82.2689 134.311 81.9238 134.486C81.5788 134.656 81.2826 134.91 81.0352 135.248C80.7878 135.587 80.5957 136 80.459 136.488C80.3223 136.977 80.2539 137.54 80.2539 138.178V138.588C80.2539 139.089 80.3223 139.561 80.459 140.004C80.6022 140.44 80.8073 140.824 81.0742 141.156C81.3477 141.488 81.6764 141.749 82.0605 141.938C82.4512 142.126 82.8939 142.221 83.3887 142.221C84.0267 142.221 84.5671 142.09 85.0098 141.83C85.4525 141.57 85.8398 141.221 86.1719 140.785L87.2656 141.654C87.0378 141.999 86.748 142.328 86.3965 142.641C86.0449 142.953 85.612 143.207 85.0977 143.402C84.5898 143.598 83.9876 143.695 83.291 143.695ZM100.625 140.697C100.625 140.437 100.566 140.196 100.449 139.975C100.339 139.747 100.107 139.542 99.7559 139.359C99.4108 139.171 98.89 139.008 98.1934 138.871C97.6074 138.747 97.0768 138.601 96.6016 138.432C96.1328 138.262 95.7324 138.057 95.4004 137.816C95.0749 137.576 94.8242 137.292 94.6484 136.967C94.4727 136.641 94.3848 136.26 94.3848 135.824C94.3848 135.408 94.4759 135.014 94.6582 134.643C94.847 134.271 95.1107 133.943 95.4492 133.656C95.7943 133.37 96.2077 133.145 96.6895 132.982C97.1712 132.82 97.7083 132.738 98.3008 132.738C99.1471 132.738 99.8698 132.888 100.469 133.188C101.068 133.487 101.527 133.887 101.846 134.389C102.165 134.883 102.324 135.434 102.324 136.039H100.518C100.518 135.746 100.43 135.463 100.254 135.189C100.085 134.91 99.834 134.678 99.502 134.496C99.1764 134.314 98.776 134.223 98.3008 134.223C97.7995 134.223 97.3926 134.301 97.0801 134.457C96.7741 134.607 96.5495 134.799 96.4062 135.033C96.2695 135.268 96.2012 135.515 96.2012 135.775C96.2012 135.971 96.2337 136.146 96.2988 136.303C96.3704 136.452 96.4941 136.592 96.6699 136.723C96.8457 136.846 97.0931 136.964 97.4121 137.074C97.7311 137.185 98.138 137.296 98.6328 137.406C99.4987 137.602 100.212 137.836 100.771 138.109C101.331 138.383 101.748 138.718 102.021 139.115C102.295 139.512 102.432 139.994 102.432 140.561C102.432 141.023 102.334 141.446 102.139 141.83C101.95 142.214 101.673 142.546 101.309 142.826C100.951 143.1 100.521 143.314 100.02 143.471C99.5247 143.62 98.9681 143.695 98.3496 143.695C97.4186 143.695 96.6309 143.529 95.9863 143.197C95.3418 142.865 94.8535 142.436 94.5215 141.908C94.1895 141.381 94.0234 140.824 94.0234 140.238H95.8398C95.8659 140.733 96.0091 141.127 96.2695 141.42C96.5299 141.706 96.849 141.911 97.2266 142.035C97.6042 142.152 97.9785 142.211 98.3496 142.211C98.8444 142.211 99.2578 142.146 99.5898 142.016C99.9284 141.885 100.186 141.706 100.361 141.479C100.537 141.251 100.625 140.99 100.625 140.697ZM111.27 141.059V132.934H113.086V143.5H111.357L111.27 141.059ZM111.611 138.832L112.363 138.812C112.363 139.516 112.288 140.167 112.139 140.766C111.995 141.358 111.761 141.872 111.436 142.309C111.11 142.745 110.684 143.087 110.156 143.334C109.629 143.575 108.988 143.695 108.232 143.695C107.718 143.695 107.246 143.62 106.816 143.471C106.393 143.321 106.029 143.09 105.723 142.777C105.417 142.465 105.179 142.058 105.01 141.557C104.847 141.055 104.766 140.453 104.766 139.75V132.934H106.572V139.77C106.572 140.245 106.624 140.639 106.729 140.951C106.839 141.257 106.986 141.501 107.168 141.684C107.357 141.859 107.565 141.983 107.793 142.055C108.027 142.126 108.268 142.162 108.516 142.162C109.284 142.162 109.893 142.016 110.342 141.723C110.791 141.423 111.113 141.023 111.309 140.521C111.51 140.014 111.611 139.451 111.611 138.832ZM122.07 141.693V136.254C122.07 135.837 121.986 135.476 121.816 135.17C121.654 134.857 121.406 134.617 121.074 134.447C120.742 134.278 120.332 134.193 119.844 134.193C119.388 134.193 118.988 134.271 118.643 134.428C118.304 134.584 118.037 134.789 117.842 135.043C117.653 135.297 117.559 135.57 117.559 135.863H115.752C115.752 135.486 115.85 135.111 116.045 134.74C116.24 134.369 116.52 134.034 116.885 133.734C117.256 133.428 117.699 133.188 118.213 133.012C118.734 132.829 119.313 132.738 119.951 132.738C120.719 132.738 121.396 132.868 121.982 133.129C122.575 133.389 123.037 133.783 123.369 134.311C123.708 134.831 123.877 135.486 123.877 136.273V141.195C123.877 141.547 123.906 141.921 123.965 142.318C124.03 142.715 124.124 143.057 124.248 143.344V143.5H122.363C122.272 143.292 122.201 143.015 122.148 142.67C122.096 142.318 122.07 141.993 122.07 141.693ZM122.383 137.094L122.402 138.363H120.576C120.062 138.363 119.603 138.406 119.199 138.49C118.796 138.568 118.457 138.689 118.184 138.852C117.91 139.014 117.702 139.219 117.559 139.467C117.415 139.708 117.344 139.991 117.344 140.316C117.344 140.648 117.419 140.951 117.568 141.225C117.718 141.498 117.943 141.716 118.242 141.879C118.548 142.035 118.923 142.113 119.365 142.113C119.919 142.113 120.407 141.996 120.83 141.762C121.253 141.527 121.589 141.241 121.836 140.902C122.09 140.564 122.227 140.235 122.246 139.916L123.018 140.785C122.972 141.059 122.848 141.361 122.646 141.693C122.445 142.025 122.174 142.344 121.836 142.65C121.504 142.95 121.107 143.201 120.645 143.402C120.189 143.598 119.674 143.695 119.102 143.695C118.385 143.695 117.757 143.555 117.217 143.275C116.683 142.995 116.266 142.621 115.967 142.152C115.674 141.677 115.527 141.146 115.527 140.561C115.527 139.994 115.638 139.496 115.859 139.066C116.081 138.63 116.4 138.269 116.816 137.982C117.233 137.689 117.734 137.468 118.32 137.318C118.906 137.169 119.561 137.094 120.283 137.094H122.383ZM133.477 135.033V143.5H131.66V132.934H133.379L133.477 135.033ZM133.105 137.816L132.266 137.787C132.272 137.064 132.367 136.397 132.549 135.785C132.731 135.167 133.001 134.63 133.359 134.174C133.717 133.718 134.163 133.367 134.697 133.119C135.231 132.865 135.85 132.738 136.553 132.738C137.048 132.738 137.503 132.81 137.92 132.953C138.337 133.09 138.698 133.308 139.004 133.607C139.31 133.907 139.548 134.291 139.717 134.76C139.886 135.229 139.971 135.795 139.971 136.459V143.5H138.164V136.547C138.164 135.993 138.07 135.551 137.881 135.219C137.699 134.887 137.438 134.646 137.1 134.496C136.761 134.34 136.364 134.262 135.908 134.262C135.374 134.262 134.928 134.356 134.57 134.545C134.212 134.734 133.926 134.994 133.711 135.326C133.496 135.658 133.34 136.039 133.242 136.469C133.151 136.892 133.105 137.341 133.105 137.816ZM139.951 136.82L138.74 137.191C138.747 136.612 138.841 136.055 139.023 135.521C139.212 134.988 139.482 134.512 139.834 134.096C140.192 133.679 140.632 133.35 141.152 133.109C141.673 132.862 142.269 132.738 142.939 132.738C143.506 132.738 144.007 132.813 144.443 132.963C144.886 133.113 145.257 133.344 145.557 133.656C145.863 133.962 146.094 134.356 146.25 134.838C146.406 135.32 146.484 135.893 146.484 136.557V143.5H144.668V136.537C144.668 135.945 144.574 135.486 144.385 135.16C144.202 134.828 143.942 134.597 143.604 134.467C143.271 134.33 142.874 134.262 142.412 134.262C142.015 134.262 141.663 134.33 141.357 134.467C141.051 134.604 140.794 134.792 140.586 135.033C140.378 135.268 140.218 135.538 140.107 135.844C140.003 136.15 139.951 136.475 139.951 136.82ZM153.604 143.695C152.868 143.695 152.201 143.572 151.602 143.324C151.009 143.07 150.498 142.715 150.068 142.26C149.645 141.804 149.32 141.264 149.092 140.639C148.864 140.014 148.75 139.33 148.75 138.588V138.178C148.75 137.318 148.877 136.553 149.131 135.883C149.385 135.206 149.73 134.633 150.166 134.164C150.602 133.695 151.097 133.34 151.65 133.1C152.204 132.859 152.777 132.738 153.369 132.738C154.124 132.738 154.775 132.868 155.322 133.129C155.876 133.389 156.328 133.754 156.68 134.223C157.031 134.685 157.292 135.232 157.461 135.863C157.63 136.488 157.715 137.172 157.715 137.914V138.725H149.824V137.25H155.908V137.113C155.882 136.645 155.785 136.189 155.615 135.746C155.452 135.303 155.192 134.939 154.834 134.652C154.476 134.366 153.988 134.223 153.369 134.223C152.959 134.223 152.581 134.311 152.236 134.486C151.891 134.656 151.595 134.91 151.348 135.248C151.1 135.587 150.908 136 150.771 136.488C150.635 136.977 150.566 137.54 150.566 138.178V138.588C150.566 139.089 150.635 139.561 150.771 140.004C150.915 140.44 151.12 140.824 151.387 141.156C151.66 141.488 151.989 141.749 152.373 141.938C152.764 142.126 153.206 142.221 153.701 142.221C154.339 142.221 154.88 142.09 155.322 141.83C155.765 141.57 156.152 141.221 156.484 140.785L157.578 141.654C157.35 141.999 157.061 142.328 156.709 142.641C156.357 142.953 155.924 143.207 155.41 143.402C154.902 143.598 154.3 143.695 153.604 143.695ZM161.631 135.189V143.5H159.824V132.934H161.533L161.631 135.189ZM161.201 137.816L160.449 137.787C160.456 137.064 160.563 136.397 160.771 135.785C160.98 135.167 161.273 134.63 161.65 134.174C162.028 133.718 162.477 133.367 162.998 133.119C163.525 132.865 164.108 132.738 164.746 132.738C165.267 132.738 165.736 132.81 166.152 132.953C166.569 133.09 166.924 133.311 167.217 133.617C167.516 133.923 167.744 134.32 167.9 134.809C168.057 135.29 168.135 135.88 168.135 136.576V143.5H166.318V136.557C166.318 136.003 166.237 135.561 166.074 135.229C165.911 134.89 165.674 134.646 165.361 134.496C165.049 134.34 164.665 134.262 164.209 134.262C163.76 134.262 163.35 134.356 162.979 134.545C162.614 134.734 162.298 134.994 162.031 135.326C161.771 135.658 161.566 136.039 161.416 136.469C161.273 136.892 161.201 137.341 161.201 137.816ZM175.303 132.934V134.32H169.59V132.934H175.303ZM171.523 130.365H173.33V140.883C173.33 141.241 173.385 141.511 173.496 141.693C173.607 141.876 173.75 141.996 173.926 142.055C174.102 142.113 174.29 142.143 174.492 142.143C174.642 142.143 174.798 142.13 174.961 142.104C175.13 142.071 175.257 142.045 175.342 142.025L175.352 143.5C175.208 143.546 175.02 143.588 174.785 143.627C174.557 143.673 174.281 143.695 173.955 143.695C173.512 143.695 173.105 143.607 172.734 143.432C172.363 143.256 172.067 142.963 171.846 142.553C171.631 142.136 171.523 141.576 171.523 140.873V130.365ZM181.807 143.695C181.071 143.695 180.404 143.572 179.805 143.324C179.212 143.07 178.701 142.715 178.271 142.26C177.848 141.804 177.523 141.264 177.295 140.639C177.067 140.014 176.953 139.33 176.953 138.588V138.178C176.953 137.318 177.08 136.553 177.334 135.883C177.588 135.206 177.933 134.633 178.369 134.164C178.805 133.695 179.3 133.34 179.854 133.1C180.407 132.859 180.98 132.738 181.572 132.738C182.327 132.738 182.979 132.868 183.525 133.129C184.079 133.389 184.531 133.754 184.883 134.223C185.234 134.685 185.495 135.232 185.664 135.863C185.833 136.488 185.918 137.172 185.918 137.914V138.725H178.027V137.25H184.111V137.113C184.085 136.645 183.988 136.189 183.818 135.746C183.656 135.303 183.395 134.939 183.037 134.652C182.679 134.366 182.191 134.223 181.572 134.223C181.162 134.223 180.785 134.311 180.439 134.486C180.094 134.656 179.798 134.91 179.551 135.248C179.303 135.587 179.111 136 178.975 136.488C178.838 136.977 178.77 137.54 178.77 138.178V138.588C178.77 139.089 178.838 139.561 178.975 140.004C179.118 140.44 179.323 140.824 179.59 141.156C179.863 141.488 180.192 141.749 180.576 141.938C180.967 142.126 181.41 142.221 181.904 142.221C182.542 142.221 183.083 142.09 183.525 141.83C183.968 141.57 184.355 141.221 184.688 140.785L185.781 141.654C185.553 141.999 185.264 142.328 184.912 142.641C184.561 142.953 184.128 143.207 183.613 143.402C183.105 143.598 182.503 143.695 181.807 143.695ZM197.373 143.695C196.637 143.695 195.97 143.572 195.371 143.324C194.779 143.07 194.268 142.715 193.838 142.26C193.415 141.804 193.089 141.264 192.861 140.639C192.633 140.014 192.52 139.33 192.52 138.588V138.178C192.52 137.318 192.646 136.553 192.9 135.883C193.154 135.206 193.499 134.633 193.936 134.164C194.372 133.695 194.867 133.34 195.42 133.1C195.973 132.859 196.546 132.738 197.139 132.738C197.894 132.738 198.545 132.868 199.092 133.129C199.645 133.389 200.098 133.754 200.449 134.223C200.801 134.685 201.061 135.232 201.23 135.863C201.4 136.488 201.484 137.172 201.484 137.914V138.725H193.594V137.25H199.678V137.113C199.652 136.645 199.554 136.189 199.385 135.746C199.222 135.303 198.962 134.939 198.604 134.652C198.245 134.366 197.757 134.223 197.139 134.223C196.729 134.223 196.351 134.311 196.006 134.486C195.661 134.656 195.365 134.91 195.117 135.248C194.87 135.587 194.678 136 194.541 136.488C194.404 136.977 194.336 137.54 194.336 138.178V138.588C194.336 139.089 194.404 139.561 194.541 140.004C194.684 140.44 194.889 140.824 195.156 141.156C195.43 141.488 195.758 141.749 196.143 141.938C196.533 142.126 196.976 142.221 197.471 142.221C198.109 142.221 198.649 142.09 199.092 141.83C199.535 141.57 199.922 141.221 200.254 140.785L201.348 141.654C201.12 141.999 200.83 142.328 200.479 142.641C200.127 142.953 199.694 143.207 199.18 143.402C198.672 143.598 198.07 143.695 197.373 143.695ZM208.076 138.334V138.109C208.076 137.348 208.187 136.641 208.408 135.99C208.63 135.333 208.949 134.763 209.365 134.281C209.782 133.793 210.286 133.415 210.879 133.148C211.471 132.875 212.135 132.738 212.871 132.738C213.613 132.738 214.281 132.875 214.873 133.148C215.472 133.415 215.98 133.793 216.396 134.281C216.82 134.763 217.142 135.333 217.363 135.99C217.585 136.641 217.695 137.348 217.695 138.109V138.334C217.695 139.096 217.585 139.802 217.363 140.453C217.142 141.104 216.82 141.674 216.396 142.162C215.98 142.644 215.475 143.021 214.883 143.295C214.297 143.562 213.633 143.695 212.891 143.695C212.148 143.695 211.481 143.562 210.889 143.295C210.296 143.021 209.788 142.644 209.365 142.162C208.949 141.674 208.63 141.104 208.408 140.453C208.187 139.802 208.076 139.096 208.076 138.334ZM209.883 138.109V138.334C209.883 138.861 209.945 139.359 210.068 139.828C210.192 140.29 210.378 140.701 210.625 141.059C210.879 141.417 211.195 141.7 211.572 141.908C211.95 142.11 212.389 142.211 212.891 142.211C213.385 142.211 213.818 142.11 214.189 141.908C214.567 141.7 214.88 141.417 215.127 141.059C215.374 140.701 215.56 140.29 215.684 139.828C215.814 139.359 215.879 138.861 215.879 138.334V138.109C215.879 137.589 215.814 137.097 215.684 136.635C215.56 136.166 215.371 135.753 215.117 135.395C214.87 135.03 214.557 134.743 214.18 134.535C213.809 134.327 213.372 134.223 212.871 134.223C212.376 134.223 211.94 134.327 211.562 134.535C211.191 134.743 210.879 135.03 210.625 135.395C210.378 135.753 210.192 136.166 210.068 136.635C209.945 137.097 209.883 137.589 209.883 138.109ZM231.074 140.697C231.074 140.437 231.016 140.196 230.898 139.975C230.788 139.747 230.557 139.542 230.205 139.359C229.86 139.171 229.339 139.008 228.643 138.871C228.057 138.747 227.526 138.601 227.051 138.432C226.582 138.262 226.182 138.057 225.85 137.816C225.524 137.576 225.273 137.292 225.098 136.967C224.922 136.641 224.834 136.26 224.834 135.824C224.834 135.408 224.925 135.014 225.107 134.643C225.296 134.271 225.56 133.943 225.898 133.656C226.243 133.37 226.657 133.145 227.139 132.982C227.62 132.82 228.158 132.738 228.75 132.738C229.596 132.738 230.319 132.888 230.918 133.188C231.517 133.487 231.976 133.887 232.295 134.389C232.614 134.883 232.773 135.434 232.773 136.039H230.967C230.967 135.746 230.879 135.463 230.703 135.189C230.534 134.91 230.283 134.678 229.951 134.496C229.626 134.314 229.225 134.223 228.75 134.223C228.249 134.223 227.842 134.301 227.529 134.457C227.223 134.607 226.999 134.799 226.855 135.033C226.719 135.268 226.65 135.515 226.65 135.775C226.65 135.971 226.683 136.146 226.748 136.303C226.82 136.452 226.943 136.592 227.119 136.723C227.295 136.846 227.542 136.964 227.861 137.074C228.18 137.185 228.587 137.296 229.082 137.406C229.948 137.602 230.661 137.836 231.221 138.109C231.781 138.383 232.197 138.718 232.471 139.115C232.744 139.512 232.881 139.994 232.881 140.561C232.881 141.023 232.783 141.446 232.588 141.83C232.399 142.214 232.122 142.546 231.758 142.826C231.4 143.1 230.97 143.314 230.469 143.471C229.974 143.62 229.417 143.695 228.799 143.695C227.868 143.695 227.08 143.529 226.436 143.197C225.791 142.865 225.303 142.436 224.971 141.908C224.639 141.381 224.473 140.824 224.473 140.238H226.289C226.315 140.733 226.458 141.127 226.719 141.42C226.979 141.706 227.298 141.911 227.676 142.035C228.053 142.152 228.428 142.211 228.799 142.211C229.294 142.211 229.707 142.146 230.039 142.016C230.378 141.885 230.635 141.706 230.811 141.479C230.986 141.251 231.074 140.99 231.074 140.697ZM239.639 143.695C238.903 143.695 238.236 143.572 237.637 143.324C237.044 143.07 236.533 142.715 236.104 142.26C235.68 141.804 235.355 141.264 235.127 140.639C234.899 140.014 234.785 139.33 234.785 138.588V138.178C234.785 137.318 234.912 136.553 235.166 135.883C235.42 135.206 235.765 134.633 236.201 134.164C236.637 133.695 237.132 133.34 237.686 133.1C238.239 132.859 238.812 132.738 239.404 132.738C240.16 132.738 240.811 132.868 241.357 133.129C241.911 133.389 242.363 133.754 242.715 134.223C243.066 134.685 243.327 135.232 243.496 135.863C243.665 136.488 243.75 137.172 243.75 137.914V138.725H235.859V137.25H241.943V137.113C241.917 136.645 241.82 136.189 241.65 135.746C241.488 135.303 241.227 134.939 240.869 134.652C240.511 134.366 240.023 134.223 239.404 134.223C238.994 134.223 238.617 134.311 238.271 134.486C237.926 134.656 237.63 134.91 237.383 135.248C237.135 135.587 236.943 136 236.807 136.488C236.67 136.977 236.602 137.54 236.602 138.178V138.588C236.602 139.089 236.67 139.561 236.807 140.004C236.95 140.44 237.155 140.824 237.422 141.156C237.695 141.488 238.024 141.749 238.408 141.938C238.799 142.126 239.242 142.221 239.736 142.221C240.374 142.221 240.915 142.09 241.357 141.83C241.8 141.57 242.188 141.221 242.52 140.785L243.613 141.654C243.385 141.999 243.096 142.328 242.744 142.641C242.393 142.953 241.96 143.207 241.445 143.402C240.938 143.598 240.335 143.695 239.639 143.695ZM252.324 141.059V132.934H254.141V143.5H252.412L252.324 141.059ZM252.666 138.832L253.418 138.812C253.418 139.516 253.343 140.167 253.193 140.766C253.05 141.358 252.816 141.872 252.49 142.309C252.165 142.745 251.738 143.087 251.211 143.334C250.684 143.575 250.042 143.695 249.287 143.695C248.773 143.695 248.301 143.62 247.871 143.471C247.448 143.321 247.083 143.09 246.777 142.777C246.471 142.465 246.234 142.058 246.064 141.557C245.902 141.055 245.82 140.453 245.82 139.75V132.934H247.627V139.77C247.627 140.245 247.679 140.639 247.783 140.951C247.894 141.257 248.04 141.501 248.223 141.684C248.411 141.859 248.62 141.983 248.848 142.055C249.082 142.126 249.323 142.162 249.57 142.162C250.339 142.162 250.947 142.016 251.396 141.723C251.846 141.423 252.168 141.023 252.363 140.521C252.565 140.014 252.666 139.451 252.666 138.832ZM266.084 142.211C266.514 142.211 266.911 142.123 267.275 141.947C267.64 141.771 267.939 141.531 268.174 141.225C268.408 140.912 268.542 140.557 268.574 140.16H270.293C270.26 140.785 270.049 141.368 269.658 141.908C269.274 142.442 268.77 142.875 268.145 143.207C267.52 143.533 266.833 143.695 266.084 143.695C265.29 143.695 264.596 143.555 264.004 143.275C263.418 142.995 262.93 142.611 262.539 142.123C262.155 141.635 261.865 141.075 261.67 140.443C261.481 139.805 261.387 139.132 261.387 138.422V138.012C261.387 137.302 261.481 136.632 261.67 136C261.865 135.362 262.155 134.799 262.539 134.311C262.93 133.822 263.418 133.438 264.004 133.158C264.596 132.878 265.29 132.738 266.084 132.738C266.911 132.738 267.633 132.908 268.252 133.246C268.87 133.578 269.355 134.034 269.707 134.613C270.065 135.186 270.26 135.837 270.293 136.566H268.574C268.542 136.13 268.418 135.736 268.203 135.385C267.995 135.033 267.708 134.753 267.344 134.545C266.986 134.33 266.566 134.223 266.084 134.223C265.531 134.223 265.065 134.333 264.688 134.555C264.316 134.77 264.02 135.062 263.799 135.434C263.584 135.798 263.428 136.205 263.33 136.654C263.239 137.097 263.193 137.549 263.193 138.012V138.422C263.193 138.884 263.239 139.34 263.33 139.789C263.421 140.238 263.574 140.645 263.789 141.01C264.01 141.374 264.307 141.667 264.678 141.889C265.055 142.104 265.524 142.211 266.084 142.211ZM271.846 138.334V138.109C271.846 137.348 271.956 136.641 272.178 135.99C272.399 135.333 272.718 134.763 273.135 134.281C273.551 133.793 274.056 133.415 274.648 133.148C275.241 132.875 275.905 132.738 276.641 132.738C277.383 132.738 278.05 132.875 278.643 133.148C279.242 133.415 279.749 133.793 280.166 134.281C280.589 134.763 280.911 135.333 281.133 135.99C281.354 136.641 281.465 137.348 281.465 138.109V138.334C281.465 139.096 281.354 139.802 281.133 140.453C280.911 141.104 280.589 141.674 280.166 142.162C279.749 142.644 279.245 143.021 278.652 143.295C278.066 143.562 277.402 143.695 276.66 143.695C275.918 143.695 275.251 143.562 274.658 143.295C274.066 143.021 273.558 142.644 273.135 142.162C272.718 141.674 272.399 141.104 272.178 140.453C271.956 139.802 271.846 139.096 271.846 138.334ZM273.652 138.109V138.334C273.652 138.861 273.714 139.359 273.838 139.828C273.962 140.29 274.147 140.701 274.395 141.059C274.648 141.417 274.964 141.7 275.342 141.908C275.719 142.11 276.159 142.211 276.66 142.211C277.155 142.211 277.588 142.11 277.959 141.908C278.337 141.7 278.649 141.417 278.896 141.059C279.144 140.701 279.329 140.29 279.453 139.828C279.583 139.359 279.648 138.861 279.648 138.334V138.109C279.648 137.589 279.583 137.097 279.453 136.635C279.329 136.166 279.141 135.753 278.887 135.395C278.639 135.03 278.327 134.743 277.949 134.535C277.578 134.327 277.142 134.223 276.641 134.223C276.146 134.223 275.71 134.327 275.332 134.535C274.961 134.743 274.648 135.03 274.395 135.395C274.147 135.753 273.962 136.166 273.838 136.635C273.714 137.097 273.652 137.589 273.652 138.109ZM285.537 134.594V143.5H283.73V132.934H285.488L285.537 134.594ZM288.838 132.875L288.828 134.555C288.678 134.522 288.535 134.503 288.398 134.496C288.268 134.483 288.118 134.477 287.949 134.477C287.533 134.477 287.165 134.542 286.846 134.672C286.527 134.802 286.257 134.984 286.035 135.219C285.814 135.453 285.638 135.733 285.508 136.059C285.384 136.378 285.303 136.729 285.264 137.113L284.756 137.406C284.756 136.768 284.818 136.169 284.941 135.609C285.072 135.049 285.27 134.555 285.537 134.125C285.804 133.689 286.143 133.35 286.553 133.109C286.969 132.862 287.464 132.738 288.037 132.738C288.167 132.738 288.317 132.755 288.486 132.787C288.656 132.813 288.773 132.842 288.838 132.875ZM292.314 134.965V147.562H290.498V132.934H292.158L292.314 134.965ZM299.434 138.129V138.334C299.434 139.102 299.342 139.815 299.16 140.473C298.978 141.124 298.711 141.69 298.359 142.172C298.014 142.654 297.588 143.028 297.08 143.295C296.572 143.562 295.99 143.695 295.332 143.695C294.661 143.695 294.069 143.585 293.555 143.363C293.04 143.142 292.604 142.82 292.246 142.396C291.888 141.973 291.602 141.465 291.387 140.873C291.178 140.281 291.035 139.613 290.957 138.871V137.777C291.035 136.996 291.182 136.296 291.396 135.678C291.611 135.059 291.895 134.532 292.246 134.096C292.604 133.653 293.037 133.318 293.545 133.09C294.053 132.855 294.639 132.738 295.303 132.738C295.967 132.738 296.556 132.868 297.07 133.129C297.585 133.383 298.018 133.747 298.369 134.223C298.721 134.698 298.984 135.268 299.16 135.932C299.342 136.589 299.434 137.322 299.434 138.129ZM297.617 138.334V138.129C297.617 137.602 297.562 137.107 297.451 136.645C297.34 136.176 297.168 135.766 296.934 135.414C296.706 135.056 296.413 134.776 296.055 134.574C295.697 134.366 295.27 134.262 294.775 134.262C294.32 134.262 293.923 134.34 293.584 134.496C293.252 134.652 292.969 134.864 292.734 135.131C292.5 135.391 292.308 135.691 292.158 136.029C292.015 136.361 291.908 136.706 291.836 137.064V139.594C291.966 140.049 292.148 140.479 292.383 140.883C292.617 141.28 292.93 141.602 293.32 141.85C293.711 142.09 294.202 142.211 294.795 142.211C295.283 142.211 295.703 142.11 296.055 141.908C296.413 141.7 296.706 141.417 296.934 141.059C297.168 140.701 297.34 140.29 297.451 139.828C297.562 139.359 297.617 138.861 297.617 138.334ZM301.26 138.334V138.109C301.26 137.348 301.37 136.641 301.592 135.99C301.813 135.333 302.132 134.763 302.549 134.281C302.965 133.793 303.47 133.415 304.062 133.148C304.655 132.875 305.319 132.738 306.055 132.738C306.797 132.738 307.464 132.875 308.057 133.148C308.656 133.415 309.163 133.793 309.58 134.281C310.003 134.763 310.326 135.333 310.547 135.99C310.768 136.641 310.879 137.348 310.879 138.109V138.334C310.879 139.096 310.768 139.802 310.547 140.453C310.326 141.104 310.003 141.674 309.58 142.162C309.163 142.644 308.659 143.021 308.066 143.295C307.48 143.562 306.816 143.695 306.074 143.695C305.332 143.695 304.665 143.562 304.072 143.295C303.48 143.021 302.972 142.644 302.549 142.162C302.132 141.674 301.813 141.104 301.592 140.453C301.37 139.802 301.26 139.096 301.26 138.334ZM303.066 138.109V138.334C303.066 138.861 303.128 139.359 303.252 139.828C303.376 140.29 303.561 140.701 303.809 141.059C304.062 141.417 304.378 141.7 304.756 141.908C305.133 142.11 305.573 142.211 306.074 142.211C306.569 142.211 307.002 142.11 307.373 141.908C307.751 141.7 308.063 141.417 308.311 141.059C308.558 140.701 308.743 140.29 308.867 139.828C308.997 139.359 309.062 138.861 309.062 138.334V138.109C309.062 137.589 308.997 137.097 308.867 136.635C308.743 136.166 308.555 135.753 308.301 135.395C308.053 135.03 307.741 134.743 307.363 134.535C306.992 134.327 306.556 134.223 306.055 134.223C305.56 134.223 305.124 134.327 304.746 134.535C304.375 134.743 304.062 135.03 303.809 135.395C303.561 135.753 303.376 136.166 303.252 136.635C303.128 137.097 303.066 137.589 303.066 138.109Z" fill="#E1E1E6"/>
<path fill-rule="evenodd" clip-rule="evenodd" d="M53.625 59.5C53.625 56.8076 55.8076 54.625 58.5 54.625H65.8125C68.5049 54.625 70.6875 56.8076 70.6875 59.5V98.5C70.6875 101.192 68.5049 103.375 65.8125 103.375H58.5C55.8076 103.375 53.625 101.192 53.625 98.5V59.5ZM65.8125 59.5H58.5V98.5H65.8125V59.5Z" fill="#00B37E"/>
<path fill-rule="evenodd" clip-rule="evenodd" d="M85.3125 59.5C85.3125 56.8076 87.4951 54.625 90.1875 54.625H97.5C100.192 54.625 102.375 56.8076 102.375 59.5V98.5C102.375 101.192 100.192 103.375 97.5 103.375H90.1875C87.4951 103.375 85.3125 101.192 85.3125 98.5V59.5ZM97.5 59.5H90.1875V98.5H97.5V59.5Z" fill="#00B37E"/>
<path fill-rule="evenodd" clip-rule="evenodd" d="M97.5 64.375C97.5 63.0288 98.5913 61.9375 99.9375 61.9375H107.25C108.543 61.9375 109.783 62.4511 110.697 63.3654C111.611 64.2796 112.125 65.5196 112.125 66.8125V91.1875C112.125 92.4804 111.611 93.7204 110.697 94.6346C109.783 95.5489 108.543 96.0625 107.25 96.0625H99.9375C98.5913 96.0625 97.5 94.9712 97.5 93.625C97.5 92.2788 98.5913 91.1875 99.9375 91.1875H107.25L107.25 66.8125L99.9375 66.8125C98.5913 66.8125 97.5 65.7212 97.5 64.375Z" fill="#00B37E"/>
<path fill-rule="evenodd" clip-rule="evenodd" d="M45.3029 63.3654C46.2171 62.4511 47.4571 61.9375 48.75 61.9375H56.0625C57.4087 61.9375 58.5 63.0288 58.5 64.375C58.5 65.7212 57.4087 66.8125 56.0625 66.8125L48.75 66.8125V91.1875H56.0625C57.4087 91.1875 58.5 92.2788 58.5 93.625C58.5 94.9712 57.4087 96.0625 56.0625 96.0625H48.75C47.4571 96.0625 46.2171 95.5489 45.3029 94.6346C44.3886 93.7204 43.875 92.4804 43.875 91.1875V66.8125C43.875 65.5196 44.3886 64.2796 45.3029 63.3654Z" fill="#00B37E"/>
<path fill-rule="evenodd" clip-rule="evenodd" d="M65.8125 79C65.8125 77.6538 66.9038 76.5625 68.25 76.5625H87.75C89.0962 76.5625 90.1875 77.6538 90.1875 79C90.1875 80.3462 89.0962 81.4375 87.75 81.4375H68.25C66.9038 81.4375 65.8125 80.3462 65.8125 79Z" fill="#00B37E"/>
<path fill-rule="evenodd" clip-rule="evenodd" d="M107.25 79C107.25 77.6538 108.341 76.5625 109.688 76.5625H114.562C115.909 76.5625 117 77.6538 117 79C117 80.3462 115.909 81.4375 114.562 81.4375H109.688C108.341 81.4375 107.25 80.3462 107.25 79Z" fill="#00B37E"/>
<path fill-rule="evenodd" clip-rule="evenodd" d="M39 79C39 77.6538 40.0913 76.5625 41.4375 76.5625H46.3125C47.6587 76.5625 48.75 77.6538 48.75 79C48.75 80.3462 47.6587 81.4375 46.3125 81.4375H41.4375C40.0913 81.4375 39 80.3462 39 79Z" fill="#00B37E"/>
<path d="M150.652 75.6445V80.2148H135.809V75.6445H150.652ZM137.547 64.0625V92.5H131.688V64.0625H137.547ZM154.832 64.0625V92.5H148.992V64.0625H154.832ZM171.004 86.6602C171.004 86.2565 170.887 85.8919 170.652 85.5664C170.418 85.2409 169.982 84.9414 169.344 84.668C168.719 84.3815 167.814 84.1211 166.629 83.8867C165.561 83.6523 164.565 83.3594 163.641 83.0078C162.729 82.6432 161.935 82.207 161.258 81.6992C160.594 81.1914 160.073 80.5924 159.695 79.9023C159.318 79.1992 159.129 78.3984 159.129 77.5C159.129 76.6146 159.318 75.7812 159.695 75C160.086 74.2188 160.639 73.5286 161.355 72.9297C162.085 72.3177 162.97 71.8424 164.012 71.5039C165.066 71.1523 166.251 70.9766 167.566 70.9766C169.402 70.9766 170.978 71.2695 172.293 71.8555C173.621 72.4414 174.637 73.2487 175.34 74.2773C176.056 75.293 176.414 76.4518 176.414 77.7539H170.789C170.789 77.207 170.672 76.7188 170.438 76.2891C170.216 75.8464 169.865 75.5013 169.383 75.2539C168.914 74.9935 168.302 74.8633 167.547 74.8633C166.922 74.8633 166.382 74.974 165.926 75.1953C165.47 75.4036 165.118 75.6901 164.871 76.0547C164.637 76.4062 164.52 76.7969 164.52 77.2266C164.52 77.5521 164.585 77.8451 164.715 78.1055C164.858 78.3529 165.086 78.5807 165.398 78.7891C165.711 78.9974 166.115 79.1927 166.609 79.375C167.117 79.5443 167.742 79.7005 168.484 79.8438C170.008 80.1562 171.368 80.5664 172.566 81.0742C173.764 81.569 174.715 82.2461 175.418 83.1055C176.121 83.9518 176.473 85.0651 176.473 86.4453C176.473 87.3828 176.264 88.2422 175.848 89.0234C175.431 89.8047 174.832 90.4883 174.051 91.0742C173.27 91.6471 172.332 92.0964 171.238 92.4219C170.158 92.7344 168.94 92.8906 167.586 92.8906C165.62 92.8906 163.953 92.5391 162.586 91.8359C161.232 91.1328 160.203 90.2409 159.5 89.1602C158.81 88.0664 158.465 86.9466 158.465 85.8008H163.797C163.823 86.569 164.018 87.1875 164.383 87.6562C164.76 88.125 165.236 88.4635 165.809 88.6719C166.395 88.8802 167.026 88.9844 167.703 88.9844C168.432 88.9844 169.038 88.8867 169.52 88.6914C170.001 88.4831 170.366 88.2096 170.613 87.8711C170.874 87.5195 171.004 87.1159 171.004 86.6602ZM187.312 88.3984L192 71.3672H197.879L190.75 92.5H187.195L187.312 88.3984ZM184.09 71.3672L188.797 88.418L188.895 92.5H185.32L178.191 71.3672H184.09ZM207.84 92.5H202.176V69.4922C202.176 67.8906 202.488 66.543 203.113 65.4492C203.751 64.3424 204.643 63.5091 205.789 62.9492C206.948 62.3763 208.322 62.0898 209.91 62.0898C210.431 62.0898 210.932 62.1289 211.414 62.207C211.896 62.2721 212.365 62.3568 212.82 62.4609L212.762 66.6992C212.514 66.6341 212.254 66.5885 211.98 66.5625C211.707 66.5365 211.388 66.5234 211.023 66.5234C210.346 66.5234 209.767 66.6406 209.285 66.875C208.816 67.0964 208.458 67.4284 208.211 67.8711C207.964 68.3138 207.84 68.8542 207.84 69.4922V92.5ZM212.059 71.3672V75.3516H199.031V71.3672H212.059ZM247.859 77.6367V88.9062C247.417 89.4401 246.733 90.0195 245.809 90.6445C244.884 91.2565 243.693 91.7839 242.234 92.2266C240.776 92.6693 239.012 92.8906 236.941 92.8906C235.105 92.8906 233.432 92.5911 231.922 91.9922C230.411 91.3802 229.109 90.4883 228.016 89.3164C226.935 88.1445 226.102 86.7122 225.516 85.0195C224.93 83.3138 224.637 81.3672 224.637 79.1797V77.4023C224.637 75.2148 224.917 73.2682 225.477 71.5625C226.049 69.8568 226.863 68.418 227.918 67.2461C228.973 66.0742 230.229 65.1823 231.688 64.5703C233.146 63.9583 234.767 63.6523 236.551 63.6523C239.025 63.6523 241.056 64.056 242.645 64.8633C244.233 65.6576 245.444 66.7643 246.277 68.1836C247.124 69.5898 247.645 71.2044 247.84 73.0273H242.156C242.013 72.0638 241.74 71.224 241.336 70.5078C240.932 69.7917 240.353 69.2318 239.598 68.8281C238.855 68.4245 237.892 68.2227 236.707 68.2227C235.73 68.2227 234.858 68.4245 234.09 68.8281C233.335 69.2188 232.697 69.7982 232.176 70.5664C231.655 71.3346 231.258 72.2852 230.984 73.418C230.711 74.5508 230.574 75.8659 230.574 77.3633V79.1797C230.574 80.6641 230.717 81.9792 231.004 83.125C231.29 84.2578 231.714 85.2148 232.273 85.9961C232.846 86.7643 233.549 87.3438 234.383 87.7344C235.216 88.125 236.186 88.3203 237.293 88.3203C238.217 88.3203 238.986 88.2422 239.598 88.0859C240.223 87.9297 240.724 87.7409 241.102 87.5195C241.492 87.2852 241.792 87.0638 242 86.8555V81.8164H236.648V77.6367H247.859ZM258.504 90.1172L264.109 71.3672H270.145L261.648 95.6836C261.466 96.2174 261.219 96.7904 260.906 97.4023C260.607 98.0143 260.197 98.5938 259.676 99.1406C259.168 99.7005 258.523 100.156 257.742 100.508C256.974 100.859 256.03 101.035 254.91 101.035C254.376 101.035 253.94 101.003 253.602 100.938C253.263 100.872 252.859 100.781 252.391 100.664V96.543C252.534 96.543 252.684 96.543 252.84 96.543C252.996 96.556 253.146 96.5625 253.289 96.5625C254.031 96.5625 254.637 96.4779 255.105 96.3086C255.574 96.1393 255.952 95.8789 256.238 95.5273C256.525 95.1888 256.753 94.7461 256.922 94.1992L258.504 90.1172ZM256.16 71.3672L260.75 86.6797L261.551 92.6367L257.723 93.0469L250.125 71.3672H256.16ZM278.016 75.7422V92.5H272.371V71.3672H277.664L278.016 75.7422ZM277.234 81.1914H275.672C275.672 79.7201 275.848 78.3659 276.199 77.1289C276.564 75.8789 277.091 74.7982 277.781 73.8867C278.484 72.9622 279.35 72.2461 280.379 71.7383C281.408 71.2305 282.599 70.9766 283.953 70.9766C284.891 70.9766 285.75 71.1198 286.531 71.4062C287.312 71.6797 287.983 72.1159 288.543 72.7148C289.116 73.3008 289.559 74.069 289.871 75.0195C290.184 75.957 290.34 77.0833 290.34 78.3984V92.5H284.715V79.0234C284.715 78.0599 284.585 77.3177 284.324 76.7969C284.064 76.276 283.693 75.9115 283.211 75.7031C282.742 75.4948 282.176 75.3906 281.512 75.3906C280.783 75.3906 280.145 75.5404 279.598 75.8398C279.064 76.1393 278.621 76.556 278.27 77.0898C277.918 77.6107 277.658 78.2227 277.488 78.9258C277.319 79.6289 277.234 80.3841 277.234 81.1914ZM289.812 80.5469L287.801 80.8008C287.801 79.4206 287.97 78.138 288.309 76.9531C288.66 75.7682 289.174 74.7266 289.852 73.8281C290.542 72.9297 291.395 72.2331 292.41 71.7383C293.426 71.2305 294.598 70.9766 295.926 70.9766C296.941 70.9766 297.866 71.1263 298.699 71.4258C299.533 71.7122 300.242 72.1745 300.828 72.8125C301.427 73.4375 301.883 74.2578 302.195 75.2734C302.521 76.2891 302.684 77.5326 302.684 79.0039V92.5H297.039V79.0039C297.039 78.0273 296.909 77.2852 296.648 76.7773C296.401 76.2565 296.036 75.8984 295.555 75.7031C295.086 75.4948 294.526 75.3906 293.875 75.3906C293.198 75.3906 292.605 75.5273 292.098 75.8008C291.59 76.0612 291.167 76.4258 290.828 76.8945C290.49 77.3633 290.236 77.9102 290.066 78.5352C289.897 79.1471 289.812 79.8177 289.812 80.5469Z" fill="white"/>
</svg>
